<?xml version="1.0" encoding="UTF-8"?>
<svg id="Camada_3" data-name="Camada 3" xmlns="http://www.w3.org/2000/svg" viewBox="0 0 633 474">
  <path d="M533.73,138.26c-.15,2.14-.32,2.67-1.66,2.68-24.33.09-303.33-.17-322.76.09-.4.14-.49.54-.52,1.74-.03,32.62,0,81.87-.01,117.72,0,4.58,0,8.85,0,13.3-.06,3.23.42,5.04-1.76,5.81-26.74,1.37-53.26-13.33-69.63-32.95-16.06-18.59-22.77-44.65-21.54-69.41.2-13.54-.44-29.72.39-42.63,2.85-46.49,41.7-84.37,88.07-86.43,13.28-.72,20.5.02,46.74-.24,64.06.04,172.79-.04,189.82.02,49.1-.28,92.28,40.76,92.87,90.2v.1Z"/>
  <path d="M533.6,278.62c.48,11.68.18,23.83.26,35.71-.03,9.52-.1,17.64-1.66,26.82-6.16,40.94-40.69,73.25-81.71,77.46-9.18,1.12-14.08.88-24.86.91-36.52-.02-83.64.06-118.17-.03-5.56-.08-5.73-1.63-5.76-9.57-.05-10.34.02-19.9,0-32.7.1-16.41-.25-32.53.18-46.03.31-3.17,1.11-4.13,3.96-4.4,21.56-.34,93.91-.03,122.92-.13,4.43-.24,10.9,1.23,11.59-3.8,1.05-6.16.51-12.64.65-19.05-.12-6.56.34-13.25-.56-19.35-.73-3.89-2.71-4.17-7.18-4.22-6.16-.02-12.11,0-18.44,0-33.37,0-81.4.02-106.35-.01-4.92-.07-6.29-.41-6.61-4.83-.43-22.78,0-49.74-.15-71.92.09-4.22-.48-13.74,1.31-14.97.82-1.56,7.08-1,11.07-1.13,39.16.27,98.15-.48,130.12.27,49.2,2.44,87.79,41.46,89.39,90.82v.18Z"/>
  <path d="M208.58,326.66c.15,0,.22.02.24.04.03.47,0,6.22.01,14.64,0,15.98,0,36.59,0,53.3,0,14.25.02,24.99-.02,24.88-.31.03-.59,0-1.19,0-19.21-.03-55.33.02-76.53,0-7.98,0-13.66,0-14.88,0-.2-.03-.26.2-.26-.75.31-50.74,41.78-92.03,92.52-92.12h.1Z"/>
</svg>